PathFileType	4	(X/Y/Z)	C:/Users/beibeiliu/ov580/test_trc/User3\sequence.14_training_dense_right.trc
DataRate	CameraRate	NumFrames	NumMarkers	Units	OrigDataRate	OrigDataStartFrame	OrigNumFrames
120	120	8	19	mm	120	124	246
Frame#	Time	ThumbCMC			ThumbMCP			ThumbIP			ThumbTip			IndexMCP			IndexPIP			IndexTip			MiddleMCP			MiddlePIP			MiddleTip			RingMCP			RingPIP			RingTip			PinkyMCP			PinkyPIP			PinkyTip			BackHand1			BackHand2			BackHand3	
		X0	Y0	Z0	X1	Y1	Z1	X2	Y2	Z2	X3	Y3	Z3	X4	Y4	Z4	X5	Y5	Z5	X6	Y6	Z6	X7	Y7	Z7	X8	Y8	Z8	X9	Y9	Z9	X10	Y10	Z10	X11	Y11	Z11	X12	Y12	Z12	X13	Y13	Z13	X14	Y14	Z14	X15	Y15	Z15	X16	Y16	Z16	X17	Y17	Z17	X18	Y18	Z18	
123	1.025	153.451	-0.0935096	22.9522	121.302	5.83939	16.3253	98.5033	9.20214	9.6556	74.748	18.411	3.92949	119.214	-38.9536	-35.8453	98.965	-40.8653	-53.6014	75.0269	-49.8389	-68.192	127.856	-70.0815	-32.762	107.851	-81.4295	-52.0981	84.0143	-92.9343	-68.1802	132.706	-87.1842	-19.5287	116.73	-100.371	-32.8686	97.8923	-115.473	-41.4933	141.361	-98.4952	9.63636	125.426	-118.452	3.82091	112.518	-135.494	0.0164287	170.671	-65.7681	7.27266	193.896	-53.8522	25.1757	173.021	-27.9053	4.72337	
124	1.03333	155.536	-2.67833	20.8614	128.752	7.48651	15.3763	101.729	17.4448	6.0136	81.4127	23.6203	-0.108297	116.671	-36.6201	-38.0347	96.3332	-37.4704	-54.385	74.6967	-39.2945	-67.5094	120.918	-65.251	-36.0982	104.014	-77.4512	-48.9678	75.1556	-88.6447	-65.9371	125.647	-85.2026	-15.3876	109.454	-98.4371	-29.5319	85.6584	-108.403	-41.2597	129.352	-98.551	11.1779	112.492	-112.951	7.84113	96.1183	-125.174	4.62346	163.002	-64.7051	7.68954	188.935	-54.5208	25.0645	172.007	-29.1394	2.83647	
125	1.04167	161.21	-0.614515	19.0636	132.724	13.9453	11.22	110.096	24.3212	2.95844	89.9618	34.4946	-6.00033	119.308	-32.3568	-36.0625	99.1552	-29.9693	-54.6992	74.3687	-32.351	-69.6476	119.414	-64.195	-32.2103	96.4398	-69.6336	-53.5581	67.3269	-80.6071	-65.8981	119.872	-78.328	-16.9244	100.09	-94.5239	-29.2327	79.486	-99.8613	-38.7953	121.369	-88.0417	12.2297	105.87	-101.637	9.74196	85.695	-114.364	8.37825	161.024	-68.2356	7.65733	183.825	-60.3396	26.4066	171.486	-31.75	2.23926	
126	1.05	164.178	-1.08224	17.8147	140.768	15.2844	9.91433	118.501	30.8337	-2.15558	101.173	39.541	-7.85091	121.745	-27.2916	-37.6624	98.891	-28.3104	-57.3988	78.4533	-29.2284	-70.5709	117.005	-61.6444	-34.5549	95.1743	-66.883	-51.5397	67.6005	-73.0356	-64.3446	116.584	-78.3314	-15.7067	98.2617	-86.5072	-28.3681	72.8556	-96.3981	-37.7306	117.117	-85.665	14.5083	97.6854	-97.6404	14.2744	76.8115	-106.054	9.55947	158.905	-64.6793	6.50035	183.055	-63.997	27.4862	173.643	-34.2541	0.139839	
127	1.05833	169.824	0.306616	15.756	145.329	15.6607	6.60279	128.244	34.4824	-2.97832	111.366	47.075	-12.5865	122.154	-27.6548	-38.2823	103.511	-19.7044	-59.7607	81.8917	-18.4986	-74.4148	118.139	-53.9673	-34.9064	93.3858	-61.5096	-51.5426	65.2848	-63.6385	-67.4814	114.985	-69.4458	-16.5416	92.3767	-82.0235	-29.0606	70.388	-87.7275	-36.139	109.997	-83.1922	13.7991	89.1637	-88.9796	13.232	69.9775	-97.6501	12.277	155.637	-65.0276	8.43758	183.399	-59.9845	29.1576	175.794	-35.4059	5.26955	
128	1.06667	177.166	3.47332	14.9855	155.765	19.3567	7.42746	136.434	38.1943	-6.08443	121.48	55.5869	-17.3792	126.162	-21.26	-40.7134	108.518	-18.0952	-57.3755	87.699	-13.2562	-73.0894	119.009	-49.265	-32.3895	94.5084	-52.8625	-53.7041	64.7258	-54.658	-68.8139	112.474	-64.8209	-18.0521	90.9647	-73.4476	-29.4607	66.03	-77.1806	-39.2157	106.989	-76.448	15.408	89.8857	-79.1331	12.5814	68.4491	-82.7146	11.6509	153.569	-62.4752	7.93142	180.821	-64.2144	27.1533	177.715	-34.8206	4.74592	
129	1.075	177.785	1.07847	13.373	160.075	21.8794	2.48097	145.964	43.7536	-10.1042	132.865	59.3211	-17.9566	126.177	-20.8449	-43.0113	112.42	-12.0273	-60.9075	90.8086	-7.7129	-75.5528	117.615	-46.2956	-37.3757	94.0438	-50.1584	-53.0268	65.902	-46.311	-71.1918	112.705	-59.7626	-16.5822	93.0405	-67.0834	-26.8703	64.5832	-70.8516	-38.4173	109.424	-66.6614	12.9217	83.9207	-73.6869	15.5046	62.8502	-76.9531	15.6069	155.283	-59.716	7.60339	181.584	-60.06	27.9317	179.434	-33.8678	0.915219	
130	1.08333	183.832	-0.288537	12.7684	166.575	25.4307	-1.46549	150.925	43.9686	-14.2128	138.918	59.9736	-21.3743	131.384	-17.429	-42.7324	116.328	-7.23375	-62.4801	94.5395	-4.95146	-76.9144	115.829	-46.1864	-35.8539	93.6551	-44.5735	-54.4874	69.2727	-41.8107	-69.5569	111.13	-57.6537	-16.0335	89.5123	-62.0013	-29.2735	63.7562	-63.9407	-40.5634	105.407	-62.1376	11.0768	86.8997	-66.7109	15.1275	62.0299	-70.6194	12.5792	155.867	-57.5487	5.18341	177.727	-63.7823	28.9038	178.61	-35.2271	0.990523	
